HIERARCHY
ROOT Hips
{
 OFFSET 0.000000 0.000000 0.000000
 CHANNELS 6 Xposition Yposition Zposition Yrotation Xrotation Zrotation
 JOINT Chest
 {
  OFFSET 0.000000 9.585900 0.002600
  CHANNELS 3 Yrotation Xrotation Zrotation
  JOINT Chest2
  {
   OFFSET 0.000000 9.601200 -0.005300
   CHANNELS 3 Yrotation Xrotation Zrotation
   JOINT Chest3
   {
    OFFSET 0.000000 9.561800 0.000000
    CHANNELS 3 Yrotation Xrotation Zrotation
    JOINT Chest4
    {
     OFFSET 0.000000 9.552100 0.000000
     CHANNELS 3 Yrotation Xrotation Zrotation
     JOINT Neck
     {
      OFFSET 0.000000 14.453000 0.000000
      CHANNELS 3 Yrotation Xrotation Zrotation
      JOINT Head
      {
       OFFSET 0.000000 8.936500 -0.011300
       CHANNELS 3 Yrotation Xrotation Zrotation
       End Site
       {
        OFFSET 0.000000 17.073600 -0.006000
       }
      }
     }
     JOINT RightCollar
     {
      OFFSET -2.921100 9.558500 0.000000
      CHANNELS 3 Yrotation Xrotation Zrotation
      JOINT RightShoulder
      {
       OFFSET -13.519700 0.000000 0.000000
       CHANNELS 3 Yrotation Xrotation Zrotation
       JOINT RightElbow
       {
        OFFSET 0.000000 -29.696600 0.000000
        CHANNELS 3 Yrotation Xrotation Zrotation
        JOINT RightWrist
        {
         OFFSET 0.000000 -24.004700 0.000000
         CHANNELS 3 Yrotation Xrotation Zrotation
         End Site
         {
          OFFSET 0.000000 -17.728500 0.000000
         }
        }
       }
      }
     }
     JOINT LeftCollar
     {
      OFFSET 2.921100 9.558500 0.000000
      CHANNELS 3 Yrotation Xrotation Zrotation
      JOINT LeftShoulder
      {
       OFFSET 13.519700 0.000000 0.000000
       CHANNELS 3 Yrotation Xrotation Zrotation
       JOINT LeftElbow
       {
        OFFSET 0.000000 -29.696600 0.000000
        CHANNELS 3 Yrotation Xrotation Zrotation
        JOINT LeftWrist
        {
         OFFSET 0.000000 -24.004700 0.000000
         CHANNELS 3 Yrotation Xrotation Zrotation
         End Site
         {
          OFFSET 0.000000 -17.728500 0.000000
         }
        }
       }
      }
     }
    }
   }
  }
 }
 JOINT RightHip
 {
  OFFSET -7.771700 -0.012900 -0.001300
  CHANNELS 3 Yrotation Xrotation Zrotation
  JOINT RightKnee
  {
   OFFSET 0.000000 -40.869800 0.001200
   CHANNELS 3 Yrotation Xrotation Zrotation
   JOINT RightAnkle
   {
    OFFSET 0.000000 -39.717900 0.002100
    CHANNELS 3 Yrotation Xrotation Zrotation
    JOINT RightToe
    {
     OFFSET 0.000000 -4.965400 11.033500
     CHANNELS 3 Yrotation Xrotation Zrotation
     End Site
     {
      OFFSET 0.000000 -1.423100 5.872300
     }
    }
   }
  }
 }
 JOINT LeftHip
 {
  OFFSET 7.771700 -0.012900 -0.001300
  CHANNELS 3 Yrotation Xrotation Zrotation
  JOINT LeftKnee
  {
   OFFSET 0.000000 -40.869800 0.001200
   CHANNELS 3 Yrotation Xrotation Zrotation
   JOINT LeftAnkle
   {
    OFFSET 0.000000 -39.717900 0.002100
    CHANNELS 3 Yrotation Xrotation Zrotation
    JOINT LeftToe
    {
     OFFSET 0.000000 -4.965400 11.033500
     CHANNELS 3 Yrotation Xrotation Zrotation
     End Site
     {
      OFFSET 0.000000 -1.423100 5.872300
     }
    }
   }
  }
 }
}
MOTION
Frames: 8
Frame Time: 0.008333
0.000000 85.388000 0.000000 0.000000 -5.767877 0.000000 0.000000 11.653817 0.000000 0.000000 -5.885947 0.000000 0.000000 -0.000000 0.000000 0.000000 -0.000000 0.000000 0.000000 12.528835 0.000000 0.000000 0.711642 0.000000 0.000000 -0.000000 0.000000 0.000000 0.000000 -90.000000 0.000000 -2.309062 0.000000 0.000000 2.309062 0.000000 0.000000 -0.000000 0.000000 0.000000 -0.000000 90.000000 0.000000 -2.309062 0.000000 0.000000 2.309062 0.000000 0.000000 8.520406 0.000000 0.000000 1.905762 0.000000 -0.000000 -4.658285 0.000000 0.000000 -0.000000 0.000000 0.000000 8.520406 0.000000 0.000000 1.905762 0.000000 -0.000000 -4.658285 0.000000 0.000000 -0.000000 0.000000
-94.875594 55.596050 -50.845396 -171.866351 -17.786298 -0.687399 -0.662349 15.815189 0.166962 -0.065045 1.525769 0.050622 -0.108453 2.559500 0.084089 -0.596051 14.013177 0.413524 -0.044888 11.847954 1.561721 -0.400322 -13.215128 1.638930 0.464418 0.676945 0.913906 7.594084 -9.057415 -8.609203 -72.192491 -51.508897 115.549503 -19.598894 -17.022402 -3.293118 -7.313311 -2.559741 1.460482 -5.180357 -14.126873 7.229391 61.498265 -51.092076 -109.129263 10.060248 -24.308122 8.178907 -1.715317 -58.126791 6.996422 -37.947078 84.399173 -44.225363 -9.221894 -16.841850 13.835580 0.059804 -0.197558 0.029916 10.258819 -54.102956 -12.321170 88.905233 71.311599 89.783458 0.528585 -19.243542 -2.155485 0.124742 0.331868 0.071874
-94.876426 55.597560 -50.840499 -171.861105 -17.799501 -0.682432 -0.687931 15.809331 0.159334 -0.098105 1.493180 0.057982 -0.116380 2.555216 0.084324 -0.621295 14.013580 0.407832 0.031999 11.870690 1.443416 -0.292987 -13.192130 1.496276 0.592071 0.583830 0.869869 8.019493 -9.270599 -8.660490 -72.914453 -51.833868 116.407091 -19.308005 -18.657600 -4.699031 -7.298834 -2.555953 1.434780 -5.519184 -14.332424 7.148833 61.992907 -51.588691 -109.521229 9.607091 -26.034743 9.450303 -1.721773 -58.113204 6.993933 -37.964401 84.389844 -44.251329 -9.212488 -16.836654 13.836927 0.059281 -0.198869 0.029581 10.262731 -54.084315 -12.328505 88.857623 71.311505 89.735880 0.524704 -19.239120 -2.152710 0.125999 0.336791 0.067874
-94.877185 55.599886 -50.835382 -171.858663 -17.819870 -0.677771 -0.730854 15.791117 0.151703 -0.114341 1.476448 0.062059 -0.124780 2.549558 0.084426 -0.650210 14.012441 0.401361 0.111218 11.916665 1.365804 -0.165025 -13.180302 1.301417 0.728967 0.470601 0.817644 8.443753 -9.481778 -8.680235 -73.690167 -52.128983 117.288462 -19.000855 -20.287357 -6.188555 -7.280187 -2.587441 1.399905 -5.848648 -14.515083 7.050728 62.551855 -52.059124 -110.002582 9.131659 -27.902728 10.815375 -1.775776 -58.089261 7.032825 -37.924166 84.382199 -44.242968 -9.213675 -16.830209 13.839129 0.081970 -0.198207 0.030136 10.263256 -54.060640 -12.328295 88.815357 71.315601 89.694595 0.518626 -19.229711 -2.153340 0.132875 0.336922 0.069029
-94.876771 55.602470 -50.828406 -171.853210 -17.834765 -0.680259 -0.776158 15.763643 0.152080 -0.098248 1.495560 0.057009 -0.154364 2.519840 0.089724 -0.690692 13.998923 0.398127 0.200619 11.941395 1.218350 -0.052376 -13.138165 1.173266 0.876116 0.333063 0.764322 8.871248 -9.692035 -8.669289 -74.526675 -52.366660 118.214742 -18.573912 -21.818060 -7.744141 -7.270280 -2.653238 1.348579 -6.159972 -14.680392 6.940525 63.071674 -52.423390 -110.510365 8.659732 -29.746926 12.205237 -1.811558 -58.071654 7.051214 -37.831351 84.373901 -44.167951 -9.174086 -16.823729 13.843161 0.066041 -0.202681 0.020604 10.253519 -54.044804 -12.322323 88.767266 71.316258 89.648264 0.519431 -19.219086 -2.160410 0.133235 0.338906 0.072949
-94.876518 55.606094 -50.821888 -171.858834 -17.858179 -0.679491 -0.856223 15.695560 0.146915 -0.039776 1.563053 0.045559 -0.180574 2.489604 0.091229 -0.725514 13.985356 0.395136 0.292625 11.969119 1.071853 0.062232 -13.092336 1.046326 1.032616 0.166931 0.723701 9.293617 -9.906760 -8.633548 -75.480848 -52.571435 119.244731 -17.968497 -23.207652 -9.406291 -7.277018 -2.738693 1.294469 -6.451093 -14.850343 6.808460 63.495050 -52.643372 -110.990446 8.201097 -31.433000 13.581243 -1.837652 -58.045301 7.072006 -37.730850 84.362256 -44.079663 -9.167492 -16.811390 13.844125 0.067024 -0.204107 0.017095 10.251917 -54.020430 -12.313566 88.737410 71.315968 89.619009 0.518975 -19.210148 -2.163346 0.133160 0.336748 0.073354
-94.875790 55.610681 -50.815977 -171.862268 -17.888584 -0.683116 -0.871687 15.702966 0.148253 -0.093489 1.498188 0.052316 -0.152969 2.521608 0.085337 -0.754455 13.970596 0.391159 0.383789 12.010642 0.948740 0.184263 -13.050220 0.897091 1.200254 -0.028041 0.700925 9.705871 -10.130629 -8.580560 -76.605960 -52.781176 120.417785 -17.223257 -24.445880 -11.180951 -7.296885 -2.821087 1.255956 -6.713740 -15.055524 6.638638 63.879365 -52.731132 -111.475429 7.741564 -32.866231 14.924007 -1.855495 -58.011741 7.088126 -37.631358 84.354084 -43.984131 -9.173226 -16.802524 13.849381 0.071736 -0.203529 0.011257 10.246769 -53.987867 -12.296007 88.699731 71.319853 89.584106 0.512978 -19.202577 -2.163711 0.137393 0.336060 0.074769
-94.877272 55.615897 -50.809599 -171.854379 -17.919940 -0.676689 -0.901015 15.711716 0.135106 -0.122868 1.454986 0.056791 -0.147499 2.526727 0.083797 -0.748540 13.994349 0.383487 0.447466 12.019433 0.833820 0.308272 -12.998796 0.744448 1.354207 -0.292503 0.698852 10.106659 -10.362137 -8.515677 -77.926497 -52.986483 121.734928 -16.458322 -25.498907 -12.921508 -7.359384 -2.929156 1.248083 -6.935705 -15.313713 6.432871 64.354150 -52.741135 -112.052301 7.244565 -34.014280 16.222756 -1.861847 -57.976258 7.077038 -37.531069 84.350316 -43.889900 -9.179871 -16.802570 13.859161 0.077748 -0.197628 0.001846 10.247195 -53.948698 -12.305202 88.601662 71.327254 89.491968 0.519698 -19.175694 -2.163583 0.139054 0.333321 0.075190
